<svg xmlns="http://www.w3.org/2000/svg" xmlns:xlink="http://www.w3.org/1999/xlink" width="500" zoomAndPan="magnify" viewBox="0 0 375 374.999991" height="500" preserveAspectRatio="xMidYMid meet" version="1.0"><defs><clipPath id="7d28158cd0"><path d="M 27.75 12.429688 L 347.25 12.429688 L 347.25 362.679688 L 27.75 362.679688 Z M 27.75 12.429688 " clip-rule="nonzero"/></clipPath></defs><path fill="#00bf63" d="M 166.15625 232.714844 C 166.15625 242.054688 158.578125 249.632812 149.238281 249.632812 C 139.890625 249.632812 132.320312 242.054688 132.320312 232.714844 L 132.320312 204.414062 C 132.320312 195.066406 139.894531 187.496094 149.238281 187.496094 C 158.578125 187.496094 166.15625 195.074219 166.15625 204.414062 Z M 243.894531 204.414062 C 243.894531 195.066406 236.316406 187.496094 226.96875 187.496094 C 217.625 187.496094 210.050781 195.074219 210.050781 204.414062 L 210.050781 232.714844 C 210.050781 242.054688 217.628906 249.632812 226.96875 249.632812 C 236.316406 249.632812 243.894531 242.054688 243.894531 232.714844 Z M 243.894531 204.414062 " fill-opacity="1" fill-rule="nonzero"/><g clip-path="url(#7d28158cd0)"><path fill="#ffffff" d="M 347.238281 229.769531 L 347.238281 269.683594 C 347.238281 284.496094 335.226562 296.507812 320.410156 296.507812 C 314.75 296.507812 309.503906 294.75 305.175781 291.753906 C 282.992188 333.792969 238.851562 362.523438 188.105469 362.523438 C 137.089844 362.523438 92.765625 333.488281 70.691406 291.09375 C 66.199219 294.476562 60.628906 296.507812 54.566406 296.507812 C 39.761719 296.507812 27.75 284.496094 27.75 269.683594 L 27.75 229.769531 C 27.75 214.949219 39.761719 202.945312 54.574219 202.945312 C 55.921875 202.945312 57.242188 203.074219 58.539062 203.269531 C 66.570312 164.1875 91.875 130.574219 128.53125 112.054688 L 145.023438 144.710938 C 112.550781 161.109375 92.378906 193.871094 92.378906 230.21875 C 92.378906 283 135.320312 325.941406 188.105469 325.941406 C 240.886719 325.941406 283.828125 283 283.828125 230.21875 C 283.828125 181.878906 247.8125 141.824219 201.210938 135.414062 C 201.210938 135.410156 201.214844 135.394531 201.214844 135.394531 C 201.214844 135.394531 201.144531 135.394531 201.035156 135.386719 C 199.710938 135.207031 198.375 135.046875 197.03125 134.921875 C 188.488281 133.304688 169.8125 126.027344 169.8125 93.335938 L 169.8125 67.335938 L 139.9375 67.335938 L 188.105469 12.46875 L 236.269531 67.34375 L 206.398438 67.34375 L 206.398438 87.746094 C 206.777344 92.011719 208.632812 98.558594 216.023438 100.914062 C 217.082031 101.136719 218.144531 101.367188 219.199219 101.625 C 219.273438 101.632812 219.339844 101.652344 219.414062 101.664062 L 219.410156 101.679688 C 268.644531 113.671875 307.171875 153.277344 317.597656 203.097656 C 318.523438 203.003906 319.464844 202.949219 320.414062 202.949219 C 335.226562 202.945312 347.238281 214.957031 347.238281 229.769531 Z M 347.238281 229.769531 " fill-opacity="1" fill-rule="nonzero"/></g></svg>